<svg width="15" height="15" viewBox="0 0 15 15" fill="none" xmlns="http://www.w3.org/2000/svg">
<mask id="mask0_1_169" style="mask-type:alpha" maskUnits="userSpaceOnUse" x="0" y="0" width="15" height="15">
<rect width="15" height="15" fill="#D9D9D9"/>
</mask>
<g mask="url(#mask0_1_169)">
<path d="M7.50006 13.75C6.63548 13.75 5.82298 13.5859 5.06256 13.2578C4.30214 12.9297 3.64069 12.4843 3.07819 11.9218C2.51569 11.3593 2.07037 10.6979 1.74225 9.93747C1.41412 9.17705 1.25006 8.36455 1.25006 7.49997C1.25006 6.63539 1.41412 5.82289 1.74225 5.06247C2.07037 4.30205 2.51569 3.64059 3.07819 3.07809C3.64069 2.51559 4.30214 2.07028 5.06256 1.74216C5.82298 1.41403 6.63548 1.24997 7.50006 1.24997C8.36464 1.24997 9.17714 1.41403 9.93756 1.74216C10.698 2.07028 11.3594 2.51559 11.9219 3.07809C12.4844 3.64059 12.9297 4.30205 13.2579 5.06247C13.586 5.82289 13.7501 6.63539 13.7501 7.49997V8.40622C13.7501 9.0208 13.5391 9.54424 13.1172 9.97653C12.6954 10.4088 12.1771 10.625 11.5626 10.625C11.198 10.625 10.8542 10.5468 10.5313 10.3906C10.2084 10.2343 9.93756 10.0104 9.71881 9.71872C9.41673 10.0208 9.07558 10.2474 8.69537 10.3984C8.31517 10.5494 7.91673 10.625 7.50006 10.625C6.63548 10.625 5.8985 10.3203 5.28912 9.71091C4.67975 9.10153 4.37506 8.36455 4.37506 7.49997C4.37506 6.63539 4.67975 5.89841 5.28912 5.28903C5.8985 4.67966 6.63548 4.37497 7.50006 4.37497C8.36464 4.37497 9.10162 4.67966 9.711 5.28903C10.3204 5.89841 10.6251 6.63539 10.6251 7.49997V8.40622C10.6251 8.67705 10.7136 8.90622 10.8907 9.09372C11.0678 9.28122 11.2917 9.37497 11.5626 9.37497C11.8334 9.37497 12.0574 9.28122 12.2344 9.09372C12.4115 8.90622 12.5001 8.67705 12.5001 8.40622V7.49997C12.5001 6.10414 12.0157 4.92184 11.0469 3.95309C10.0782 2.98434 8.89589 2.49997 7.50006 2.49997C6.10423 2.49997 4.92194 2.98434 3.95319 3.95309C2.98444 4.92184 2.50006 6.10414 2.50006 7.49997C2.50006 8.8958 2.98444 10.0781 3.95319 11.0468C4.92194 12.0156 6.10423 12.5 7.50006 12.5H10.6251V13.75H7.50006ZM7.50006 9.37497C8.02089 9.37497 8.4636 9.19268 8.82819 8.82809C9.19277 8.46351 9.37506 8.0208 9.37506 7.49997C9.37506 6.97914 9.19277 6.53643 8.82819 6.17184C8.4636 5.80726 8.02089 5.62497 7.50006 5.62497C6.97923 5.62497 6.53652 5.80726 6.17194 6.17184C5.80735 6.53643 5.62506 6.97914 5.62506 7.49997C5.62506 8.0208 5.80735 8.46351 6.17194 8.82809C6.53652 9.19268 6.97923 9.37497 7.50006 9.37497Z" fill="#9A9A9A" fill-opacity="0.6"/>
</g>
</svg>
